<?xml version="1.0" encoding="UTF-8" standalone="no"?>
<!DOCTYPE svg PUBLIC "-//W3C//DTD SVG 1.1//EN"
 "http://www.w3.org/Graphics/SVG/1.1/DTD/svg11.dtd">
<!-- Generated by graphviz version 2.38.0 (20140413.2041)
 -->
<!-- Title: %3 Pages: 1 -->
<svg width="135pt" height="188pt"
 viewBox="0.00 0.00 134.95 188.00" xmlns="http://www.w3.org/2000/svg" xmlns:xlink="http://www.w3.org/1999/xlink">
<g id="graph0" class="graph" transform="scale(1 1) rotate(0) translate(4 184)">
<title>%3</title>
<polygon fill="white" stroke="none" points="-4,4 -4,-184 130.948,-184 130.948,4 -4,4"/>
<!-- bspQtAS -->
<g id="node1" class="node"><title>bspQtAS</title>
<ellipse fill="none" stroke="black" cx="63.9475" cy="-162" rx="56.59" ry="18"/>
<text text-anchor="middle" x="63.9475" y="-158.3" font-family="Times,serif" font-size="14.00">BSP + QtAS</text>
</g>
<!-- bsp -->
<g id="node2" class="node"><title>bsp</title>
<ellipse fill="none" stroke="black" cx="27.9475" cy="-90" rx="27" ry="18"/>
<text text-anchor="middle" x="27.9475" y="-86.3" font-family="Times,serif" font-size="14.00">BSP</text>
</g>
<!-- bspQtAS&#45;&gt;bsp -->
<g id="edge2" class="edge"><title>bspQtAS&#45;&gt;bsp</title>
<path fill="none" stroke="black" d="M55.2329,-144.055C50.9703,-135.767 45.751,-125.618 41.0228,-116.424"/>
<polygon fill="black" stroke="black" points="44.02,-114.599 36.334,-107.307 37.795,-117.801 44.02,-114.599"/>
</g>
<!-- qt -->
<g id="node4" class="node"><title>qt</title>
<ellipse fill="none" stroke="black" cx="99.9475" cy="-90" rx="27" ry="18"/>
<text text-anchor="middle" x="99.9475" y="-86.3" font-family="Times,serif" font-size="14.00">Qt</text>
</g>
<!-- bspQtAS&#45;&gt;qt -->
<g id="edge3" class="edge"><title>bspQtAS&#45;&gt;qt</title>
<path fill="none" stroke="black" d="M72.6621,-144.055C76.9247,-135.767 82.1441,-125.618 86.8723,-116.424"/>
<polygon fill="black" stroke="black" points="90.1,-117.801 91.5611,-107.307 83.875,-114.599 90.1,-117.801"/>
</g>
<!-- base -->
<g id="node3" class="node"><title>base</title>
<ellipse fill="none" stroke="black" cx="27.9475" cy="-18" rx="27.8951" ry="18"/>
<text text-anchor="middle" x="27.9475" y="-14.3" font-family="Times,serif" font-size="14.00">Base</text>
</g>
<!-- bsp&#45;&gt;base -->
<g id="edge1" class="edge"><title>bsp&#45;&gt;base</title>
<path fill="none" stroke="black" d="M27.9475,-71.6966C27.9475,-63.9827 27.9475,-54.7125 27.9475,-46.1124"/>
<polygon fill="black" stroke="black" points="31.4476,-46.1043 27.9475,-36.1043 24.4476,-46.1044 31.4476,-46.1043"/>
</g>
</g>
</svg>
